<svg width="145.535889" height="23.740845" viewBox="0 0 145.536 23.7408" fill="none" xmlns="http://www.w3.org/2000/svg" xmlns:xlink="http://www.w3.org/1999/xlink">
	<desc>
			Created with Pixso.
	</desc>
	<defs/>
	<path id="manage" d="M40.0144 8.55334L40.0144 16.8088L36.2324 16.8088L36.2324 8.18933Q36.2324 4.99756 34.7368 3.95886Q34.0154 3.45776 32.9458 3.45776Q32.1169 3.45776 31.4294 3.76965Q30.6787 4.11023 30.0969 4.82263Q28.9822 6.1875 28.9822 8.55334L28.9822 16.7922L25.2002 16.7922L25.2002 0.264648L28.9822 0.264648L28.9822 2.54785L29.0317 2.54785Q29.8499 1.55347 30.8916 0.935669Q31.1323 0.792725 31.3853 0.670044Q32.2524 0.249023 33.1641 0.0992432L33.1641 0.0992432Q33.6675 0.0166016 34.1846 0.0166016Q36.2432 0.0166016 37.5967 0.993408Q38.5127 1.65442 39.106 2.76282L39.1721 2.76282Q39.7542 2.01331 40.4858 1.46301L40.4858 1.46301Q41.0625 1.02954 41.7319 0.719727Q41.77 0.702148 41.8081 0.684937Q41.8152 0.681763 41.8225 0.678467Q43.3059 0.0166016 45.0845 0.0166016Q47.1404 0.0166016 48.4971 0.990356Q48.9827 1.33862 49.3784 1.81152Q50.8813 3.60657 50.8813 7.22974L50.8813 16.8088L47.0994 16.8088L47.0994 8.18933Q47.0994 4.96619 45.5974 3.9386Q44.8945 3.45776 43.8625 3.45776Q43.1667 3.45776 42.5691 3.69995Q41.7483 4.03271 41.1125 4.82263Q40.0144 6.1875 40.0144 8.55334ZM64.6155 16.1682Q63.1316 17.057 61.1155 17.057C59.9814 17.057 58.9216 16.8557 57.9363 16.4531C56.9507 16.0505 56.1057 15.4854 55.4011 14.7573C54.6965 14.0294 54.1404 13.136 53.7332 12.0771C53.3257 11.0184 53.1221 9.86035 53.1221 8.60291Q53.1221 6.77393 53.7283 5.17456Q53.7307 5.16821 53.7332 5.16174C54.1404 4.09192 54.6965 3.18201 55.4011 2.43201C56.1057 1.68201 56.948 1.09192 57.928 0.661743Q58.248 0.52124 58.5786 0.411255Q59.7646 0.0166016 61.0823 0.0166016Q63.1294 0.0166016 64.636 0.918945Q65.4995 1.43616 66.1855 2.25L66.2517 2.25L66.2517 0.264648L70.0337 0.264648L70.0337 16.7922L66.4167 16.7922L66.4167 14.5753L66.3672 14.5753Q65.6113 15.5718 64.6155 16.1682ZM61.71 13.6158Q60.3745 13.6158 59.3535 13.049Q58.7712 12.7257 58.2913 12.2178C57.4104 11.2859 56.97 10.0864 56.97 8.61951C56.97 7.06433 57.4243 5.81531 58.3325 4.87219Q58.939 4.2428 59.6777 3.89343Q60.5991 3.45776 61.7266 3.45776Q62.7715 3.45776 63.6323 3.85608Q64.4309 4.22583 65.0708 4.93848C65.957 5.92554 66.4004 7.15259 66.4004 8.61951Q66.4004 10.1732 65.7209 11.3269Q65.4382 11.807 65.0378 12.2178C64.1294 13.1498 63.02 13.6158 61.71 13.6158ZM88.8225 7.06433L88.8225 16.8088L85.0405 16.8088L85.0405 8.04041C85.0405 7.18018 84.9634 6.45215 84.8093 5.85657C84.655 5.26099 84.4185 4.78955 84.0991 4.44214Q83.7646 4.07812 83.3535 3.85535Q83.176 3.75916 82.9844 3.68933Q82.3484 3.45776 81.4568 3.45776C80.1575 3.45776 79.1199 3.89893 78.3435 4.78125C77.5674 5.66357 77.1792 6.89893 77.1792 8.48718L77.1792 16.7922L73.3972 16.7922L73.3972 0.264648L77.1792 0.264648L77.1792 2.53125L77.2288 2.53125Q77.8552 1.79407 78.6255 1.26685Q79.1345 0.918457 79.7061 0.661743Q80.2026 0.438721 80.7209 0.292847Q81.7021 0.0166016 82.7615 0.0166016C84.655 0.0166016 86.1387 0.592773 87.2122 1.74536C88.2856 2.89795 88.8225 4.6709 88.8225 7.06433ZM102.54 16.1682Q101.056 17.057 99.04 17.057C97.9058 17.057 96.8462 16.8557 95.8608 16.4531C94.8752 16.0505 94.0303 15.4854 93.3257 14.7573Q92.2686 13.6654 91.6577 12.0771C91.2502 11.0184 91.0466 9.86035 91.0466 8.60291C91.0466 7.37866 91.2502 6.23157 91.6577 5.16174Q92.2686 3.55701 93.3257 2.43201Q93.5984 2.14185 93.8984 1.88354Q94.7617 1.1405 95.8525 0.661743C96.8325 0.231567 97.8838 0.0166016 99.0068 0.0166016Q101.054 0.0166016 102.56 0.918823Q103.424 1.43616 104.11 2.25L104.176 2.25L104.176 0.264648L107.958 0.264648L107.958 16.7922L104.341 16.7922L104.341 14.5753L104.292 14.5753Q103.536 15.5718 102.54 16.1682ZM99.6345 13.6158C98.2361 13.6158 97.0967 13.1498 96.2158 12.2178C95.335 11.2859 94.8945 10.0864 94.8945 8.61951C94.8945 7.06433 95.3489 5.81531 96.2571 4.87219C97.1655 3.9292 98.2966 3.45776 99.6509 3.45776C100.994 3.45776 102.109 3.95129 102.995 4.93848C103.882 5.92554 104.325 7.15259 104.325 8.61951C104.325 10.0864 103.871 11.2859 102.962 12.2178C102.054 13.1498 100.945 13.6158 99.6345 13.6158ZM121.925 23.319C120.978 23.6002 119.904 23.7408 118.704 23.7408C117.46 23.7408 116.26 23.5919 115.104 23.2941C113.948 22.9963 112.907 22.5717 111.982 22.0203L112.874 18.6783Q114.46 19.5221 115.674 19.9191C116.483 20.1838 117.421 20.3162 118.49 20.3162Q120.834 20.3162 122.123 19.1581C122.981 18.386 123.411 17.4154 123.411 16.2463L123.411 14.4927L123.345 14.4927C122.057 15.8383 120.389 16.511 118.341 16.511C116.81 16.511 115.434 16.1774 114.212 15.5101C112.99 14.8428 112.029 13.886 111.33 12.6396C110.631 11.3934 110.281 9.96509 110.281 8.35474C110.281 6.7666 110.614 5.33545 111.281 4.06152C111.947 2.78772 112.88 1.79224 114.08 1.07532C115.28 0.358398 116.634 0 118.143 0C119.101 0 120.022 0.170898 120.909 0.512817C121.795 0.854736 122.58 1.35107 123.262 2.00183L123.328 2.00183L123.328 0.264648L127.11 0.264648L127.11 15.0883C127.11 16.114 127.017 17.057 126.83 17.9172Q126.564 19.1375 125.981 20.1802Q125.948 20.2402 125.913 20.2997C125.489 21.0276 124.955 21.6425 124.311 22.1443C123.667 22.6461 122.871 23.0377 121.925 23.319ZM118.836 13.0203C117.471 13.0203 116.345 12.5873 115.459 11.7216C114.573 10.8557 114.129 9.69482 114.129 8.23901C114.129 6.83826 114.564 5.69666 115.434 4.81433Q115.827 4.41541 116.293 4.13672Q117.371 3.49084 118.836 3.49084Q120.075 3.49084 121.057 3.99329Q121.659 4.30127 122.164 4.79785C123.05 5.66907 123.493 6.79968 123.493 8.18933C123.493 9.59009 123.061 10.7454 122.197 11.6553Q121.739 12.1379 121.184 12.45Q120.171 13.0203 118.836 13.0203ZM141.993 16.2133C140.821 16.7758 139.464 17.057 137.922 17.057Q135.835 17.057 134.111 16.265Q133.858 16.1484 133.612 16.0146Q132.853 15.6019 132.221 15.045Q131.258 14.1959 130.59 13.012C129.852 11.705 129.483 10.2078 129.483 8.52026C129.483 7.27393 129.687 6.12134 130.094 5.0625C130.501 4.00366 131.063 3.10474 131.779 2.36584Q132.035 2.10071 132.316 1.8634Q133.208 1.10901 134.339 0.636963C135.33 0.223389 136.392 0.0166016 137.526 0.0166016C139.123 0.0166016 140.532 0.375 141.754 1.09192C142.976 1.80884 143.912 2.7959 144.562 4.05334C145.211 5.31067 145.536 6.73901 145.536 8.33826C145.536 8.94482 145.503 9.44666 145.437 9.84375L133.414 9.84375C133.656 11.0128 134.198 11.9338 135.041 12.6066C135.883 13.2794 136.909 13.6158 138.121 13.6158C139.827 13.6158 141.198 12.9651 142.233 11.6636L144.875 13.9302C144.127 14.8896 143.166 15.6508 141.993 16.2133ZM141.737 6.78308L133.48 6.78308C133.744 5.72424 134.256 4.90527 135.016 4.32629C135.775 3.74719 136.678 3.45776 137.724 3.45776C138.781 3.45776 139.654 3.75549 140.342 4.35107Q140.478 4.46899 140.603 4.59814Q141.422 5.44751 141.737 6.78308Z" clip-rule="evenodd" fill="#FFFFFF" fill-opacity="1.000000" fill-rule="evenodd"/>
	<mask id="mask_0_738" fill="white">
		<path id="Combined Shape" d="M0 2.85718C0 1.27917 1.24731 0 2.78564 0C4.32422 0 5.57153 1.27917 5.57153 2.85718C5.57153 4.43506 4.32422 5.71423 2.78564 5.71423C1.24731 5.71423 0 4.43506 0 2.85718ZM12.8142 0C11.2759 0 10.0286 1.27917 10.0286 2.85718C10.0286 4.43506 11.2759 5.71423 12.8142 5.71423C14.3528 5.71423 15.6001 4.43506 15.6001 2.85718C15.6001 1.27917 14.3528 0 12.8142 0ZM0 13.1428C0 11.5649 1.24731 10.2858 2.78564 10.2858C4.32422 10.2858 5.57153 11.5649 5.57153 13.1428C5.57153 14.7208 4.32422 16 2.78564 16C1.24731 16 0 14.7208 0 13.1428Z" clip-rule="evenodd" fill="" fill-opacity="1.000000" fill-rule="evenodd"/>
	</mask>
	<path id="Combined Shape" d="M0 2.85718C0 1.27917 1.24731 0 2.78564 0C4.32422 0 5.57153 1.27917 5.57153 2.85718C5.57153 4.43506 4.32422 5.71423 2.78564 5.71423C1.24731 5.71423 0 4.43506 0 2.85718ZM12.8142 0C11.2759 0 10.0286 1.27917 10.0286 2.85718C10.0286 4.43506 11.2759 5.71423 12.8142 5.71423C14.3528 5.71423 15.6001 4.43506 15.6001 2.85718C15.6001 1.27917 14.3528 0 12.8142 0ZM0 13.1428C0 11.5649 1.24731 10.2858 2.78564 10.2858C4.32422 10.2858 5.57153 11.5649 5.57153 13.1428C5.57153 14.7208 4.32422 16 2.78564 16C1.24731 16 0 14.7208 0 13.1428Z" clip-rule="evenodd" fill="#F3603C" fill-opacity="1.000000" fill-rule="evenodd" mask="url(#mask_0_738)"/>
	<path id="Combined Shape" d="" fill="#979797" fill-opacity="0.000000" fill-rule="nonzero"/>
</svg>
